<?xml version="1.0" encoding="iso-8859-1"?>
<!-- Generator: Adobe Illustrator 16.0.0, SVG Export Plug-In . SVG Version: 6.00 Build 0)  -->
<!DOCTYPE svg PUBLIC "-//W3C//DTD SVG 1.1//EN" "http://www.w3.org/Graphics/SVG/1.1/DTD/svg11.dtd">
<svg version="1.1" id="Capa_1" xmlns="http://www.w3.org/2000/svg" xmlns:xlink="http://www.w3.org/1999/xlink" x="0px" y="0px"
	 width="123.65px" height="123.65px" viewBox="0 0 123.65 123.65" style="enable-background:new 0 0 123.65 123.65;"
	 xml:space="preserve">
<g>
	<g>
		<circle cx="72.222" cy="34.669" r="9.261"/>
		<circle cx="96.19" cy="34.669" r="9.261"/>
		<path d="M104.3,96.041c-0.096,0.007-0.19,0.011-0.288,0.011c-1.979,0-3.589-1.61-3.589-3.591c0-11.213,7.035-15.879,7.335-16.072
			c0.066-0.043,0.133-0.081,0.2-0.113c0.002-0.002,0.006-0.005,0.009-0.007c-0.009-0.042-0.019-0.084-0.028-0.128
			c-1.542-1.311-2.526-3.258-2.526-5.436c0-1.049,0.231-2.041,0.64-2.938c-0.149-0.635-0.28-1.177-0.38-1.592V59.25
			c0.802,1.669,1.425,3.763,1.79,6.459c1.295-1.318,3.095-2.139,5.084-2.139c0.653,0,1.285,0.096,1.888,0.262
			c-1.684-10.356-6.804-14.437-12.04-17.647c-0.184-0.113-0.375-0.199-0.568-0.274c-1.033-0.682-2.19-1.182-3.372-1.464
			c-0.007-0.001-0.016-0.002-0.022-0.003l-2.236,2.348l-2.309-2.323c-1.282,0.315-2.537,0.888-3.632,1.67
			c-0.032,0.019-0.067,0.027-0.099,0.047c-2.053,1.258-4.086,2.651-5.9,4.5c-1.811-1.927-3.897-3.436-6.057-4.76
			c-0.315-0.195-0.654-0.317-0.998-0.403c-0.843-0.472-1.751-0.828-2.67-1.054l-2.309,2.323l-2.235-2.348
			c-0.009,0.001-0.018,0.002-0.023,0.003c-1.181,0.283-2.337,0.782-3.37,1.463c-0.194,0.076-0.388,0.162-0.571,0.275
			c-5.488,3.367-10.501,7.998-11.407,18.192c0.977-0.514,2.084-0.807,3.261-0.807c1.442,0,2.782,0.437,3.899,1.182
			c0.173-1.795,0.503-3.316,0.97-4.623v5.404c1.344,1.285,2.186,3.09,2.186,5.092c0,1.796-0.683,3.431-1.794,4.678
			c0.042,0.121,0.078,0.242,0.125,0.359c-0.024,0.187-0.041,0.375-0.041,0.568v0.41c0.033,0.027,0.069,0.055,0.104,0.082
			c1.3,0.965,6.884,5.684,6.884,15.609c0,1.963-1.597,3.562-3.562,3.562c-0.751,0-1.445-0.233-2.021-0.631
			c-0.025,0.063-0.053,0.126-0.08,0.188l-0.002,17.254c0,0.318-0.04,0.627-0.108,0.925c0.773,0.79,1.849,1.28,3.039,1.28
			c2.348,0,4.249-1.902,4.249-4.25L71.72,81.111c0.168,0.01,0.336,0.021,0.505,0.021c0.033,0,0.067-0.003,0.101-0.004l-0.001,29.531
			c0,2.347,1.902,4.25,4.25,4.25c2.347,0,4.25-1.903,4.25-4.25l0.001-34.219c0.054-0.103,0.105-0.207,0.155-0.311
			c0.055,0.002,0.105,0.015,0.157,0.015c0.02,0,0.035,0,0.053,0c1.063-0.014,2.012-0.493,2.659-1.237
			c0.23,0.205,0.488,0.381,0.768,0.523c-1.488,6.73-3.146,14.607-3.154,16.332c-0.007,1.413,2.543,2.624,6.137,3.387v15.512
			c0,2.347,1.902,4.248,4.249,4.248c2.349,0,4.25-1.902,4.25-4.25V96.008c0.199,0,0.401,0,0.603-0.001L96.7,110.66
			c0,2.347,1.901,4.248,4.25,4.25c2.348,0,4.248-1.902,4.248-4.25l0.002-7.082h-2.229L104.3,96.041z"/>
		<circle cx="58.125" cy="70.517" r="5.419"/>
		<path d="M66.895,94.15c1.065,0,1.927-0.861,1.927-1.927c0-9.288-5.165-13.53-6.276-14.334c-0.374-0.335-0.86-0.669-1.507-1.022
			c-0.493-0.275-1.023-0.482-1.562-0.615l-1.351,1.359l-1.311-1.375c-0.003,0-0.008,0.002-0.012,0.004
			c-0.844,0.201-1.657,0.6-2.349,1.143c-0.059,0.029-0.117,0.053-0.174,0.088c-0.265,0.171-6.489,4.303-6.489,14.484
			c0,1.064,0.861,1.928,1.927,1.928c1.063,0,1.926-0.863,1.926-1.928c0-2.313,0.387-4.209,0.934-5.754v6.727
			c0,0.564,0.108,1.094,0.304,1.58c-0.016,0.109-0.026,0.22-0.026,0.333l0.002,17.756c0,1.373,1.114,2.487,2.487,2.485
			c1.372,0,2.485-1.113,2.485-2.485V97.697c0.098,0.004,0.196,0.012,0.296,0.012c0.019,0,0.038,0,0.058-0.002v14.89
			c0,1.373,1.113,2.485,2.487,2.485c1.373,0,2.487-1.113,2.487-2.485l0.001-17.633c0.324-0.604,0.517-1.287,0.517-2.036v-7.379
			c0.733,1.688,1.294,3.877,1.294,6.676C64.969,93.287,65.83,94.15,66.895,94.15z"/>
		<circle cx="112.798" cy="70.597" r="5.5"/>
		<path d="M117.282,78.078c-0.379-0.34-0.872-0.678-1.528-1.037c-0.501-0.279-1.04-0.489-1.586-0.625l-1.37,1.381l-1.328-1.395
			c-0.004,0-0.011,0.002-0.015,0.002c-0.854,0.205-1.682,0.609-2.382,1.162c-0.062,0.028-0.12,0.051-0.177,0.088
			c-0.271,0.172-6.587,4.365-6.587,14.699c0,1.081,0.875,1.956,1.955,1.956s1.956-0.875,1.956-1.956
			c0-2.348,0.393-4.271,0.945-5.839v4.015l-1.999,11.307h2.281l0.003,11.466c0,1.396,1.129,2.524,2.521,2.524
			c1.396,0,2.522-1.129,2.522-2.524v-11.466h0.358l-0.001,11.466c0,1.396,1.131,2.524,2.524,2.524s2.523-1.129,2.523-2.524v-11.466
			h2.51l-1.984-11.211v-4.773c0.743,1.712,1.313,3.936,1.313,6.775c0,1.08,0.874,1.957,1.957,1.957c1.079,0,1.954-0.875,1.954-1.957
			C123.653,83.201,118.41,78.895,117.282,78.078z"/>
		<path d="M49.75,113.222l-0.002-15.631c-0.018,0-0.035,0-0.053,0c-2.764,0-5.011-2.248-5.011-5.011
			c0-6.541,2.235-10.944,4.339-13.648H39.81v29.49H23.309V52.604h32.033c2.369-3.734,5.508-6.203,8.61-8.149
			c-2.51-2.261-4.1-5.524-4.1-9.16c0-6.806,5.537-12.344,12.345-12.344c2.083,0,4.041,0.526,5.763,1.442L55.832,7.144
			c-0.863-0.907-2.06-1.421-3.311-1.421c-1.252,0-2.448,0.514-3.311,1.421L20.798,31.016V18.123l-12.224-0.02v21.593l-6.763,6.764
			c-2.414,2.414-2.414,6.326,0,8.738c2.412,2.414,6.324,2.414,8.738,0l3.253-3.252v61.23c0,2.625,2.129,4.752,4.754,4.752h33.8
			C50.793,116.941,49.75,115.203,49.75,113.222z"/>
	</g>
</g>
<g>
</g>
<g>
</g>
<g>
</g>
<g>
</g>
<g>
</g>
<g>
</g>
<g>
</g>
<g>
</g>
<g>
</g>
<g>
</g>
<g>
</g>
<g>
</g>
<g>
</g>
<g>
</g>
<g>
</g>
</svg>
